<svg width="66" height="63" viewBox="0 0 66 63" fill="none" xmlns="http://www.w3.org/2000/svg">
<path d="M58.2577 56.3337L38.4535 9.11283C37.3743 6.66283 35.7118 4.67949 33.466 3.16283C31.2493 1.67533 28.7702 0.916992 26.0285 0.916992C23.5785 0.916992 21.3327 1.52949 19.291 2.75449C16.2285 4.59199 15.616 5.64199 14.4202 7.68366C13.2243 9.72533 12.5827 12.0003 12.5827 14.4503L12.6702 24.2503H3.92018V40.1462C5.72852 39.3295 7.65352 38.9212 9.66602 38.9212V30.1712H24.2493C25.9118 30.1712 27.2827 30.7545 28.4202 31.892C29.5577 33.0003 30.0827 34.3712 30.0827 35.917V56.4212H23.9868C23.5365 58.5251 22.5973 60.4934 21.2452 62.167H35.916V35.917C35.916 33.817 35.3327 31.892 34.3118 30.0837C33.291 28.2753 31.8618 26.9045 30.0827 25.8837C28.391 24.8337 26.4368 24.2503 24.2493 24.2503H18.416V14.4503C18.416 12.3503 19.1452 10.5712 20.6327 9.05449C22.1202 7.53783 23.9285 6.75033 26.0285 6.75033C27.5743 6.75033 29.0035 7.21699 30.2577 8.09199C31.5118 8.96699 32.4452 10.0753 32.9993 11.4462L51.841 56.3337L44.666 56.4212V62.167H65.0827V56.4212L58.2577 56.3337ZM9.66602 50.5003C11.2702 50.5003 12.5827 51.8128 12.5827 53.417C12.5827 55.0212 11.2702 56.3337 9.66602 56.3337C8.06185 56.3337 6.74935 55.0212 6.74935 53.417C6.74935 51.8128 8.06185 50.5003 9.66602 50.5003ZM9.66602 44.667C4.82435 44.667 0.916016 48.5753 0.916016 53.417C0.916016 58.2587 4.82435 62.167 9.66602 62.167C14.5077 62.167 18.416 58.2587 18.416 53.417C18.416 48.5753 14.5077 44.667 9.66602 44.667Z" fill="#0A63A0"/>
</svg>
