<svg width="36" height="60" viewBox="0 0 36 60" fill="none" xmlns="http://www.w3.org/2000/svg">
<path d="M10.1688 59.1671C8.95741 59.1671 7.90741 58.783 7.0188 58.015C6.13213 57.2469 5.61005 56.2718 5.45255 55.0896L0.949219 21.2504H35.1092L30.6001 55.0896C30.4426 56.2718 29.9176 57.2469 29.0251 58.015C28.1345 58.783 27.0942 59.1671 25.9042 59.1671H10.1688ZM10.093 56.2504H25.9101C26.3573 56.2504 26.7501 56.1007 27.0884 55.8012C27.4248 55.5018 27.6299 55.1284 27.7038 54.6812L31.7084 24.1671H4.2188L8.2963 54.6812C8.37214 55.1284 8.57825 55.5018 8.91464 55.8012C9.25103 56.1007 9.64575 56.2504 10.093 56.2504ZM17.9942 40.2087C20.0164 40.2087 21.7382 39.499 23.1596 38.0796C24.581 36.664 25.2917 34.9432 25.2917 32.9171V28.5421H22.3751V32.9171C22.3751 34.1168 21.9463 35.1464 21.0888 36.0058C20.2294 36.8633 19.1998 37.2921 18.0001 37.2921C16.8003 37.2921 15.7707 36.8633 14.9113 36.0058C14.0519 35.1483 13.6231 34.1187 13.6251 32.9171V28.5421H10.7084V32.9171C10.7084 34.9432 11.4171 36.664 12.8346 38.0796C14.2502 39.499 15.9701 40.2087 17.9942 40.2087ZM26.7559 15.3587C25.9489 15.3587 25.2596 15.0768 24.688 14.5129C24.1163 13.949 23.8314 13.2616 23.8334 12.4508C23.8353 11.64 24.1182 10.9507 24.6821 10.3829C25.246 9.81511 25.9334 9.53025 26.7442 9.52831C27.5551 9.52636 28.2444 9.80831 28.8121 10.3741C29.3799 10.94 29.6648 11.6283 29.6667 12.4391C29.6687 13.25 29.3857 13.9393 28.818 14.5071C28.2502 15.0748 27.5628 15.3568 26.7559 15.3587ZM12.1667 12.4421C10.5723 12.4421 9.20144 11.8684 8.05422 10.7212C6.907 9.574 6.33339 8.19345 6.33339 6.57956C6.33339 4.96567 6.907 3.59483 8.05422 2.46706C9.20144 1.33928 10.582 0.775391 12.1959 0.775391C13.8098 0.775391 15.1806 1.33928 16.3084 2.46706C17.4362 3.59483 18.0001 4.97539 18.0001 6.60872C18.0001 8.20122 17.4362 9.57206 16.3084 10.7212C15.1806 11.8684 13.8001 12.4421 12.1667 12.4421ZM25.9101 56.2504H8.41005H27.593H25.9101Z" fill="#0A63A0"/>
</svg>
