<svg width="64" height="70" viewBox="0 0 64 70" fill="none" xmlns="http://www.w3.org/2000/svg">
<path d="M32 1.45801C30.0693 1.45926 28.1786 2.00799 26.5473 3.0405C24.9159 4.07301 23.6108 5.54698 22.7833 7.29134C17.7667 17.9955 7.64583 39.2288 2.62917 49.8747C1.80603 51.6063 1.37767 53.4991 1.375 55.4163C1.375 58.8973 2.75781 62.2357 5.21922 64.6971C7.68064 67.1585 11.019 68.5413 14.5 68.5413C25.2625 68.5413 42.2083 50.4872 42.2083 37.9163C42.2083 35.2089 41.1328 32.6124 39.2184 30.698C37.3039 28.7835 34.7074 27.708 32 27.708C29.2926 27.708 26.6961 28.7835 24.7816 30.698C22.8672 32.6124 21.7917 35.2089 21.7917 37.9163C21.7917 50.4872 38.7375 68.5413 49.5 68.5413C52.981 68.5413 56.3194 67.1585 58.7808 64.6971C61.2422 62.2357 62.625 58.8973 62.625 55.4163C62.6223 53.4991 62.194 51.6063 61.3708 49.8747C56.3542 39.2288 46.2625 17.9955 41.2458 7.34967C40.4247 5.58992 39.1186 4.10089 37.481 3.05732C35.8433 2.01375 33.9419 1.45894 32 1.45801Z" stroke="#0A63A0" stroke-linecap="round" stroke-linejoin="round"/>
</svg>
