<svg width="33" height="60" viewBox="0 0 33 60" fill="none" xmlns="http://www.w3.org/2000/svg">
<path d="M28.766 25.4205C22.816 19.4705 22.291 8.59134 22.291 6.66634H17.916V12.4997H6.24935V6.66634H0.416016C0.416016 3.45801 3.04102 0.833008 6.24935 0.833008H26.666V3.74967C26.666 3.98301 26.7827 17.2538 31.8577 22.3288L28.766 25.4205ZM29.5827 0.833008V6.66634H32.4993V0.833008H29.5827ZM23.7493 29.9997C17.916 24.1663 17.916 15.4163 17.916 15.4163H6.24935V21.2497C6.24935 24.1663 6.24935 24.1663 3.33268 27.083C0.416016 29.9997 0.416016 32.9163 0.416016 32.9163V53.333C0.416016 56.5413 3.04102 59.1663 6.24935 59.1663H17.916C21.1243 59.1663 23.7493 56.5413 23.7493 53.333V29.9997Z" fill="#0A63A0"/>
</svg>
