<svg width="20" height="20" viewBox="0 0 20 20" fill="none" xmlns="http://www.w3.org/2000/svg">
<path d="M3.33268 16.6668C2.87435 16.6668 2.48213 16.5038 2.15602 16.1777C1.8299 15.8516 1.66657 15.4591 1.66602 15.0002V5.00016C1.66602 4.54183 1.82935 4.14961 2.15602 3.8235C2.48268 3.49738 2.8749 3.33405 3.33268 3.3335H16.666C17.1243 3.3335 17.5168 3.49683 17.8435 3.8235C18.1702 4.15016 18.3332 4.54238 18.3327 5.00016V15.0002C18.3327 15.4585 18.1696 15.851 17.8435 16.1777C17.5174 16.5043 17.1249 16.6674 16.666 16.6668H3.33268ZM9.99935 10.6877C10.0688 10.6877 10.1418 10.6771 10.2185 10.656C10.2952 10.6349 10.368 10.6038 10.4368 10.5627L16.3327 6.87516C16.4438 6.80572 16.5271 6.71905 16.5827 6.61516C16.6382 6.51127 16.666 6.39655 16.666 6.271C16.666 5.99322 16.548 5.78488 16.3118 5.646C16.0757 5.50711 15.8327 5.51405 15.5827 5.66683L9.99935 9.16683L4.41602 5.66683C4.16602 5.51405 3.92296 5.51072 3.68685 5.65683C3.45074 5.80294 3.33268 6.00766 3.33268 6.271C3.33268 6.40988 3.36046 6.53155 3.41602 6.636C3.47157 6.74044 3.5549 6.82016 3.66602 6.87516L9.56185 10.5627C9.63129 10.6043 9.70435 10.6357 9.78102 10.6568C9.85768 10.6779 9.93046 10.6882 9.99935 10.6877Z" fill="white"/>
</svg>
